<?xml version="1.0" encoding="UTF-8" standalone="no"?>
<!-- Created with Inkscape (http://www.inkscape.org/) -->

<svg
   xmlns:dc="http://purl.org/dc/elements/1.1/"
   xmlns:cc="http://creativecommons.org/ns#"
   xmlns:rdf="http://www.w3.org/1999/02/22-rdf-syntax-ns#"
   xmlns:svg="http://www.w3.org/2000/svg"
   xmlns="http://www.w3.org/2000/svg"
   version="1.1"
   width="512"
   height="512"
   id="svg2">
  <defs
     id="defs4" />
  <metadata
     id="metadata7">
    <rdf:RDF>
      <cc:Work
         rdf:about="">
        <dc:format>image/svg+xml</dc:format>
        <dc:type
           rdf:resource="http://purl.org/dc/dcmitype/StillImage" />
        <dc:title></dc:title>
      </cc:Work>
    </rdf:RDF>
  </metadata>
  <g
     transform="translate(0,-540.36218)"
     id="layer1">
    <g
       id="g3090"
       style="stroke:none">
      <path
         d="m 64.996675,1024.4418 c -14.82605,-1.0523 -25.923092,-8.8355 -31.192923,-21.878 L 31.5,996.86218 l 0,-174 0,-174 2.344311,-4.71635 c 3.743776,-7.53184 9.552798,-13.36149 16.936747,-16.9969 l 6.675778,-3.28675 106.021584,-0.27233 106.02158,-0.27234 3.9308,-6.08688 c 5.22378,-8.08907 17.07806,-20.57407 25.36823,-26.71796 35.8242,-26.54955 83.31623,-30.56244 122.61558,-10.36055 28.30519,14.55033 47.82236,38.42338 56.3502,68.92657 2.48644,8.89376 2.73145,11.28404 2.6941,26.28349 -0.0346,13.8899 -0.39699,17.81725 -2.29099,24.82716 -5.83283,21.58802 -16.16185,40.80855 -39.02249,72.61416 L 432,782.74482 l 0,99.30868 c 0,77.86905 -0.2653,99.30868 -1.22886,99.30868 -0.67587,0 -15.18837,-13.74284 -32.25,-30.53965 -36.92491,-36.35179 -27.60823,-27.03515 -82.21078,-82.21035 -24.6292,-24.8875 -45.233,-45.25 -45.78621,-45.25 -0.55322,0 -9.89906,8.88487 -20.76853,19.74415 l -19.76268,19.74416 80.13461,80.13924 c 47.54934,47.5521 79.85399,80.59327 79.44451,81.25587 -0.50405,0.8156 -43.2011,1.0739 -158.38108,0.9582 -86.73004,-0.087 -161.517476,-0.4301 -166.194305,-0.762 z M 138.72069,775.78484 c 16.16311,-3.33858 28.73916,-12.60195 35.5152,-26.16008 4.53191,-9.06788 5.92929,-15.70086 5.55675,-26.37647 l -0.29264,-8.38611 -25.79072,-0.26696 -25.79071,-0.26697 0.29071,8.26697 0.29072,8.26696 15.5,0.5 c 15.11673,0.48764 15.50787,0.55537 15.81817,2.73943 0.42772,3.01053 -4.42237,11.70587 -8.55149,15.33128 -1.83728,1.61316 -5.6864,4.16933 -8.5536,5.68038 -4.67837,2.46557 -6.23879,2.74745 -15.21308,2.74814 -8.94449,6.9e-4 -10.6058,-0.29671 -15.73943,-2.81761 -7.58731,-3.72579 -13.918374,-10.22553 -17.963699,-18.44231 -3.0003,-6.09414 -3.294638,-7.50805 -3.272044,-15.71792 0.021,-7.63052 0.434429,-9.90322 2.681559,-14.74106 9.725574,-20.93818 35.004444,-28.46807 54.049294,-16.09982 l 2.75568,1.78961 6.67691,-6.67691 6.67692,-6.67691 -2.4326,-2.01216 c -4.03994,-3.3417 -14.14497,-7.94267 -20.98548,-9.55498 -18.72834,-4.4143 -38.1804,0.85266 -51.523548,13.95084 -11.095209,10.89151 -16.245629,22.02989 -17.151681,37.09249 -1.008509,16.76591 4.211401,30.10813 16.624879,42.49359 14.32917,14.29684 31.20443,19.3891 50.82393,15.33658 z"
         id="path3104"
         style="fill:#c2c2c2;stroke:none" />
      <path
         d="m 56.803211,1022.9628 c -8.929152,-2.4038 -17.100828,-9.4356 -21.591904,-18.58 L 32.5,998.86218 l 0,-174.02087 0,-174.02087 3.286748,-6.67649 c 3.945555,-8.01475 10.204984,-13.88668 17.85367,-16.74842 5.337857,-1.99715 7.307871,-2.03335 110.659212,-2.03335 l 105.2246,0 5.14353,-7.75 c 10.17741,-15.33476 24.93926,-28.02632 42.83224,-36.82516 18.98113,-9.33394 37.06717,-13.17295 57,-12.09902 40.94061,2.20577 77.18949,25.65746 94.59216,61.19766 12.11424,24.74001 13.98587,52.09396 5.36283,78.37769 -3.88149,11.8311 -14.62778,32.32316 -24.437,46.59883 -31.60563,45.99669 -44.04282,65.72356 -52.95945,84 -10.74805,22.03031 -16.52054,40.17864 -20.00541,62.89569 -1.56335,10.19112 -2.4421,13.38945 -4.19,15.25 -2.80056,2.98106 -4.90157,2.97479 -8.13763,-0.0243 -1.77818,-1.64796 -2.77182,-3.87494 -3.23482,-7.25 -4.18297,-30.49167 -14.49621,-60.5014 -30.19816,-87.87141 -5.87934,-10.24826 -21.24125,-33.5 -22.1327,-33.5 -0.37469,0 -8.54369,7.87208 -18.15333,17.4935 -13.64092,13.65765 -17.88843,17.36136 -19.37088,16.89085 C 268.87387,821.86998 230,860.70983 230,864.34571 c 0,1.98185 -16.37984,18.88211 -78.7571,81.25937 l -78.757096,78.75712 -5.492902,-0.068 c -3.021096,-0.037 -7.606457,-0.6365 -10.189691,-1.3319 z M 142.94772,776.70181 c 24.49663,-6.79202 38.9774,-26.84458 39.03492,-54.05445 0.0151,-7.15409 -0.23649,-8.35067 -1.94857,-9.26695 -1.26882,-0.67905 -11.10891,-0.95747 -27.75,-0.78518 l -25.78407,0.26695 -0.29038,8.84889 c -0.18587,5.66435 0.12811,9.35312 0.87245,10.25 0.90179,1.08659 4.50251,1.40111 16.04037,1.40111 16.61412,0 16.49859,-0.0605 12.96229,6.78984 -2.7265,5.28166 -8.69723,10.68116 -15.08473,13.64155 -4.38381,2.03175 -7.0652,2.55105 -13.21249,2.55884 -14.56753,0.0185 -25.62192,-6.81458 -32.006936,-19.78438 C 92.806336,730.52649 92.5,729.0599 92.5,720.86218 c 0,-8.2041 0.305081,-9.66176 3.291999,-15.72905 5.190491,-10.54339 14.141501,-16.90718 26.710261,-18.9899 7.26944,-1.20458 16.70941,0.78585 22.80207,4.80785 2.22818,1.47091 4.55454,2.27328 5.61508,1.93668 2.62292,-0.83248 14.31745,-13.29747 13.86247,-14.77575 -0.21156,-0.68741 -3.17578,-3.09959 -6.58714,-5.36041 -16.43701,-10.89333 -38.258,-12.15563 -56.93463,-3.29356 -9.197725,4.36433 -21.548599,16.72591 -26.100275,26.12291 -8.614488,17.78472 -7.782986,38.09759 2.261091,55.23651 3.848553,6.56706 14.023046,16.5844 20.579074,20.26122 13.95611,7.82699 29.83457,9.81345 44.94772,5.62313 z M 152.5,945.36218 c 42.89736,-42.9 78.44736,-78 79.00002,-78 1.14642,0 155.49998,154.10782 155.49998,155.25242 0,0.4112 -70.31142,0.7476 -156.2476,0.7476 l -156.247592,0 L 152.5,945.36218 z"
         id="path3102"
         style="fill:#f7d943;stroke:none" />
      <path
         d="m 152.5,945.36218 c 42.89736,-42.9 78.44736,-78 79.00002,-78 1.14642,0 155.49998,154.10782 155.49998,155.25242 0,0.4112 -70.31142,0.7476 -156.2476,0.7476 l -156.247592,0 L 152.5,945.36218 z m -119.965579,34.9503 c -0.30691,-0.7998 -0.440208,-75.26288 -0.296219,-165.47352 L 32.5,650.81962 l 3.286748,-6.67608 c 3.945588,-8.01433 10.205318,-13.8864 17.85367,-16.74801 5.337857,-1.99715 7.307871,-2.03335 110.659212,-2.03335 l 105.2246,0 5.14353,-7.75 c 10.17741,-15.33476 24.93926,-28.02632 42.83224,-36.82516 18.98113,-9.33394 37.06717,-13.17295 57,-12.09902 40.94061,2.20577 77.18949,25.65746 94.59216,61.19766 12.11424,24.74001 13.98587,52.09396 5.36283,78.37769 -3.88149,11.8311 -14.62778,32.32316 -24.437,46.59883 -31.60563,45.99669 -44.04282,65.72356 -52.95945,84 -10.74805,22.03031 -16.52054,40.17864 -20.00541,62.89569 -1.56335,10.19112 -2.4421,13.38945 -4.19,15.25 -2.80056,2.98106 -4.90157,2.97479 -8.13763,-0.0243 -1.77818,-1.64796 -2.77182,-3.87494 -3.23482,-7.25 -5.99407,-43.69361 -21.29995,-78.48352 -55.81731,-126.87139 -5.88512,-8.25 -14.77707,-21.075 -19.75989,-28.5 -4.98281,-7.425 -9.5325,-13.66858 -10.11041,-13.87461 -0.57791,-0.20604 -55.42422,53.99746 -121.88069,120.45223 C 72.583841,942.27625 32.910059,981.29137 32.534421,980.31248 z M 142.94772,776.70181 c 24.49663,-6.79202 38.9774,-26.84458 39.03492,-54.05445 0.0151,-7.15409 -0.23649,-8.35067 -1.94857,-9.26695 -1.26882,-0.67905 -11.10891,-0.95747 -27.75,-0.78518 l -25.78407,0.26695 -0.29038,8.84889 c -0.18587,5.66435 0.12811,9.35312 0.87245,10.25 0.90179,1.08659 4.50251,1.40111 16.04037,1.40111 16.61412,0 16.49859,-0.0605 12.96229,6.78984 -2.7265,5.28166 -8.69723,10.68116 -15.08473,13.64155 -4.38381,2.03175 -7.0652,2.55105 -13.21249,2.55884 -14.56753,0.0185 -25.62192,-6.81458 -32.006936,-19.78438 C 92.806336,730.52649 92.5,729.0599 92.5,720.86218 c 0,-8.2041 0.305081,-9.66176 3.291999,-15.72905 5.190491,-10.54339 14.141501,-16.90718 26.710261,-18.9899 7.26944,-1.20458 16.70941,0.78585 22.80207,4.80785 2.22818,1.47091 4.55454,2.27328 5.61508,1.93668 2.62292,-0.83248 14.31745,-13.29747 13.86247,-14.77575 -0.21156,-0.68741 -3.17578,-3.09959 -6.58714,-5.36041 -16.43701,-10.89333 -38.258,-12.15563 -56.93463,-3.29356 -9.197725,4.36433 -21.548599,16.72591 -26.100275,26.12291 -8.614488,17.78472 -7.782986,38.09759 2.261091,55.23651 3.848553,6.56706 14.023046,16.5844 20.579074,20.26122 13.95611,7.82699 29.83457,9.81345 44.94772,5.62313 z"
         id="path3100"
         style="fill:#5186c0;stroke:none" />
      <path
         d="m 33.241732,815.36218 0.258268,-166.5 2.660505,-5.04015 c 3.236758,-6.13181 10.360518,-12.88585 16.663825,-15.79896 l 4.67567,-2.16089 106.13903,-0.5 106.13902,-0.5 5.02661,-7.5 c 10.19239,-15.20767 24.94747,-27.84767 42.69534,-36.57516 18.98113,-9.33394 37.06717,-13.17295 57,-12.09902 40.94061,2.20577 77.18949,25.65746 94.59216,61.19766 12.11424,24.74001 13.98587,52.09396 5.36283,78.37769 -3.88149,11.8311 -14.62778,32.32316 -24.437,46.59883 -31.60563,45.99669 -44.04282,65.72356 -52.95945,84 -10.74805,22.03031 -16.52054,40.17864 -20.00541,62.89569 -1.56335,10.19112 -2.4421,13.38945 -4.19,15.25 -2.80056,2.98106 -4.90157,2.97479 -8.13763,-0.0243 -1.77818,-1.64796 -2.77182,-3.87494 -3.23482,-7.25 -5.99407,-43.69361 -21.29995,-78.48352 -55.81731,-126.87139 -5.88512,-8.25 -14.77707,-21.075 -19.75989,-28.5 -4.98281,-7.425 -9.5325,-13.66858 -10.11041,-13.87461 -0.57791,-0.20604 -55.44874,54.01896 -121.93518,120.5 l -120.884426,120.87461 0.258268,-166.5 z M 140.94711,777.81302 c 19.04096,-4.48798 33.48528,-17.96061 39.13071,-36.49831 1.58173,-5.19388 1.93485,-8.81175 1.70807,-17.5 L 181.5,712.86218 174,712.1018 c -4.125,-0.4182 -16.62763,-0.47524 -27.78362,-0.12674 l -20.28362,0.63362 0.28362,10.12675 0.28362,10.12675 14.97804,0.27804 c 8.23792,0.15292 15.36371,0.66371 15.8351,1.1351 0.47608,0.47608 0.0915,2.35282 -0.86506,4.22196 -3.45531,6.75146 -7.52913,10.77949 -14.24005,14.08 -6.03143,2.96632 -7.51461,3.27917 -15.29319,3.22585 -10.91382,-0.0748 -17.46404,-2.97897 -24.78433,-10.98853 -15.993979,-17.49996 -11.365935,-44.31902 9.4132,-54.54855 11.42326,-5.62365 25.39731,-4.93361 34.13957,1.68583 1.7508,1.32566 3.54022,2.4103 3.97648,2.4103 1.56276,0 15.34024,-14.48475 15.34024,-16.12773 0,-2.25605 -9.92384,-8.71716 -17.98492,-11.70945 -8.02794,-2.97999 -24.27147,-4.07334 -32.86964,-2.21245 -13.59943,2.9433 -28.090956,13.10915 -36.110398,25.33155 -10.62862,16.19904 -12.146613,39.72396 -3.645752,56.4996 5.766346,11.37934 16.00498,21.78167 26.95768,27.38869 10.4624,5.35602 27.31074,7.17726 39.60014,4.28063 z"
         id="path3098"
         style="fill:#d95f53;stroke:none" />
      <path
         d="m 33.241732,815.36218 0.258268,-166.5 2.660505,-5.04015 c 3.236758,-6.13181 10.360518,-12.88585 16.663825,-15.79896 L 57.5,625.86218 163.25,625.59437 c 58.1625,-0.14729 105.75,-0.13363 105.75,0.0304 0,0.16399 -1.60886,4.10951 -3.57525,8.76781 -5.99722,14.20719 -7.79837,23.38721 -7.84221,39.96964 -0.0534,20.19374 3.48475,35.01533 12.58856,52.73481 2.6559,5.16939 4.8289,10.157 4.8289,11.08359 0,0.92658 -54.45372,56.134 -121.00827,122.68315 l -121.008266,120.99845 0.258268,-166.5 z M 140.94711,777.81302 c 19.04096,-4.48798 33.48528,-17.96061 39.13071,-36.49831 1.58173,-5.19388 1.93485,-8.81175 1.70807,-17.5 L 181.5,712.86218 174,712.1018 c -4.125,-0.4182 -16.62763,-0.47524 -27.78362,-0.12674 l -20.28362,0.63362 0.28362,10.12675 0.28362,10.12675 14.97804,0.27804 c 8.23792,0.15292 15.36371,0.66371 15.8351,1.1351 0.47608,0.47608 0.0915,2.35282 -0.86506,4.22196 -3.45531,6.75146 -7.52913,10.77949 -14.24005,14.08 -6.03143,2.96632 -7.51461,3.27917 -15.29319,3.22585 -10.91382,-0.0748 -17.46404,-2.97897 -24.78433,-10.98853 -15.993979,-17.49996 -11.365935,-44.31902 9.4132,-54.54855 11.42326,-5.62365 25.39731,-4.93361 34.13957,1.68583 1.7508,1.32566 3.54022,2.4103 3.97648,2.4103 1.56276,0 15.34024,-14.48475 15.34024,-16.12773 0,-2.25605 -9.92384,-8.71716 -17.98492,-11.70945 -8.02794,-2.97999 -24.27147,-4.07334 -32.86964,-2.21245 -13.59943,2.9433 -28.090956,13.10915 -36.110398,25.33155 -10.62862,16.19904 -12.146613,39.72396 -3.645752,56.4996 5.766346,11.37934 16.00498,21.78167 26.95768,27.38869 10.4624,5.35602 27.31074,7.17726 39.60014,4.28063 z m 224.78207,137.79916 c -0.94426,-1.04534 -2.40261,-6.78331 -3.62174,-14.25 -2.37393,-14.53935 -7.56942,-34.08694 -12.0933,-45.5 -7.45488,-18.80757 -24.44569,-49.13074 -36.70123,-65.5 -35.06409,-46.83376 -47.28847,-68.34397 -53.00858,-93.2747 -2.5259,-11.00899 -2.26039,-35.7868 0.49198,-45.91204 4.84361,-17.81835 13.19109,-32.47752 26.43056,-46.41525 37.30637,-39.2739 98.37045,-45.86222 144.23535,-15.56181 18.86605,12.46376 34.41341,32.62015 41.39285,53.6638 4.19559,12.65008 5.44563,22.04644 4.85,36.45662 -1.05194,25.44955 -9.73849,47.11068 -31.37277,78.23238 -3.94224,5.67105 -11.51298,16.54562 -16.82388,24.16572 -33.58696,48.19069 -50.07776,84.66936 -54.60918,120.79884 -1.70935,13.62885 -4.75718,17.98168 -9.17006,13.09644 z"
         id="path3096"
         style="fill:#da493c;stroke:none" />
      <path
         d="m 33.241732,815.36218 0.258268,-166.5 2.660505,-5.04015 c 3.236758,-6.13181 10.360518,-12.88585 16.663825,-15.79896 L 57.5,625.86218 163.25,625.59437 c 58.1625,-0.14729 105.75,-0.13363 105.75,0.0304 0,0.16399 -1.60886,4.10951 -3.57525,8.76781 -5.99722,14.20719 -7.79837,23.38721 -7.84221,39.96964 -0.0534,20.19374 3.48475,35.01533 12.58856,52.73481 2.6559,5.16939 4.8289,10.157 4.8289,11.08359 0,0.92658 -54.45372,56.134 -121.00827,122.68315 l -121.008266,120.99845 0.258268,-166.5 z M 140.94711,777.81302 c 19.04096,-4.48798 33.48528,-17.96061 39.13071,-36.49831 1.58173,-5.19388 1.93485,-8.81175 1.70807,-17.5 L 181.5,712.86218 174,712.1018 c -4.125,-0.4182 -16.62763,-0.47524 -27.78362,-0.12674 l -20.28362,0.63362 0.28362,10.12675 0.28362,10.12675 14.97804,0.27804 c 8.23792,0.15292 15.36371,0.66371 15.8351,1.1351 0.47608,0.47608 0.0915,2.35282 -0.86506,4.22196 -3.45531,6.75146 -7.52913,10.77949 -14.24005,14.08 -6.03143,2.96632 -7.51461,3.27917 -15.29319,3.22585 -10.91382,-0.0748 -17.46404,-2.97897 -24.78433,-10.98853 -15.993979,-17.49996 -11.365935,-44.31902 9.4132,-54.54855 11.42326,-5.62365 25.39731,-4.93361 34.13957,1.68583 1.7508,1.32566 3.54022,2.4103 3.97648,2.4103 1.56276,0 15.34024,-14.48475 15.34024,-16.12773 0,-2.25605 -9.92384,-8.71716 -17.98492,-11.70945 -8.02794,-2.97999 -24.27147,-4.07334 -32.86964,-2.21245 -13.59943,2.9433 -28.090956,13.10915 -36.110398,25.33155 -10.62862,16.19904 -12.146613,39.72396 -3.645752,56.4996 5.766346,11.37934 16.00498,21.78167 26.95768,27.38869 10.4624,5.35602 27.31074,7.17726 39.60014,4.28063 z M 360,711.96966 c -12.5466,-2.79424 -23.83029,-12.20388 -28.01343,-23.36082 -3.02458,-8.06691 -2.57297,-21.52736 0.96447,-28.74666 3.32259,-6.78081 11.77213,-15.01271 18.78071,-18.29697 5.17272,-2.42396 6.90392,-2.70303 16.76825,-2.70303 10.12569,0 11.47689,0.23251 17,2.92526 8.17576,3.98602 16.68104,12.76994 19.3991,20.03462 2.85998,7.64398 2.87318,19.401 0.0303,26.99927 -4.34539,11.6141 -16.7946,21.33971 -30.074,23.49448 -7.56233,1.2271 -7.818,1.22115 -14.8554,-0.34615 z"
         id="path3094"
         style="fill:#21a361;stroke:none" />
      <path
         d="m 360,711.96966 c -12.5466,-2.79424 -23.83029,-12.20388 -28.01343,-23.36082 -3.02458,-8.06691 -2.57297,-21.52736 0.96447,-28.74666 3.32259,-6.78081 11.77213,-15.01271 18.78071,-18.29697 5.17272,-2.42396 6.90392,-2.70303 16.76825,-2.70303 10.12569,0 11.47689,0.23251 17,2.92526 8.17576,3.98602 16.68104,12.76994 19.3991,20.03462 2.85998,7.64398 2.87318,19.401 0.0303,26.99927 -4.34539,11.6141 -16.7946,21.33971 -30.074,23.49448 -7.56233,1.2271 -7.818,1.22115 -14.8554,-0.34615 z M 258.07895,693.77885 c 0.048,-1.16495 0.28494,-1.4019 0.60416,-0.60417 0.28887,0.72187 0.25335,1.58437 -0.0789,1.91667 -0.33229,0.33229 -0.56864,-0.25834 -0.52522,-1.3125 z m -0.92106,-7.41667 c 0,-1.375 0.22698,-1.9375 0.50439,-1.25 0.27741,0.6875 0.27741,1.8125 0,2.5 -0.27741,0.6875 -0.50439,0.125 -0.50439,-1.25 z m 0,-23 c 0,-1.375 0.22698,-1.9375 0.50439,-1.25 0.27741,0.6875 0.27741,1.8125 0,2.5 -0.27741,0.6875 -0.50439,0.125 -0.50439,-1.25 z m 0.92106,-7.58333 c 0.048,-1.16495 0.28494,-1.4019 0.60416,-0.60417 0.28887,0.72187 0.25335,1.58437 -0.0789,1.91667 -0.33229,0.33229 -0.56864,-0.25834 -0.52522,-1.3125 z"
         id="path3092"
         style="fill:#7e2b26;stroke:none" />
    </g>
  </g>
</svg>
